<svg width="48" height="48" viewBox="0 0 48 48" fill="none" xmlns="http://www.w3.org/2000/svg">
<path d="M18.2261 11.7744C18.5633 11.7747 18.8346 11.9902 18.957 12.2417C19.0193 12.3697 19.0499 12.5203 19.02 12.6709C18.9891 12.8262 18.8971 12.9633 18.7476 13.0591L18.749 13.0605C17.1519 14.0901 16.5504 15.4305 16.5503 16.9775L16.5635 17.373C16.625 18.286 16.9174 19.1324 17.6533 19.7812C18.5017 20.5291 19.981 21.0512 22.5049 21.0513H22.9912L23.4526 21.0454C25.6981 20.9853 27.0488 20.4824 27.8442 19.7812C28.5799 19.1325 28.8711 18.2858 28.9326 17.373L28.9458 16.9775C28.9457 15.4308 28.3424 14.0888 26.7485 13.0591C26.5986 12.9631 26.5066 12.8251 26.4761 12.6694C26.4468 12.5189 26.4782 12.3679 26.5405 12.2402C26.6631 11.9897 26.9343 11.7747 27.27 11.7744H29.6167C29.9678 11.7744 30.2701 12.0365 30.3125 12.3896L30.3594 12.6987C30.416 13.0119 30.5004 13.3393 30.5923 13.7021L30.7549 14.3481C30.9158 15.0243 31.0566 15.7991 31.0566 16.7256L31.0493 17.0874C30.9744 18.8885 30.3356 20.5794 29.0527 21.8657C27.684 23.238 25.6031 24.1292 22.7554 24.2256H22.7407C19.8927 24.1292 17.8121 23.2382 16.4434 21.8657C15.1606 20.5794 14.5231 18.8885 14.4482 17.0874L14.4395 16.7256C14.4395 15.4901 14.6892 14.5241 14.9038 13.7021L15.0737 13.0181C15.122 12.8013 15.1611 12.5938 15.1851 12.3896V12.3853L15.2144 12.2593C15.3069 11.9764 15.5698 11.7745 15.8794 11.7744H18.2261Z" fill="#F8F9F7"/>
<path d="M33.8481 16.5579C34.0791 16.4005 34.3877 16.4229 34.6406 16.6253L34.9014 16.8596C35.4723 17.4423 35.7944 18.2425 35.978 19.0042C36.1889 19.8796 36.2256 20.7401 36.2256 21.2469C36.2254 24.435 33.867 26.4559 30.9712 27.9763L30.9653 27.9807C28.31 29.2606 25.8549 30.6294 23.8506 32.9553C23.8011 33.0159 23.7801 33.0912 23.7891 33.159L23.9927 34.6721L24.0659 35.0896C24.103 35.2769 24.1508 35.4898 24.2007 35.658L24.2168 35.7605C24.2208 35.8618 24.1887 35.9585 24.1392 36.033C24.0728 36.1325 23.9519 36.2263 23.7935 36.2263H21.9595C21.6773 36.2263 21.4485 35.9972 21.4482 35.7151V32.2361C21.4482 31.3097 21.1786 30.4035 20.5356 29.7298C19.8951 29.0588 18.8551 28.5886 17.25 28.5886C15.9157 28.5886 15.0273 28.9578 14.48 29.51C13.933 30.0621 13.6954 30.8284 13.7285 31.6883C13.7348 31.8544 13.6789 32.0678 13.5044 32.1922L13.4224 32.2405C12.6838 32.5791 11.7751 32.0536 11.7744 31.1814V30.9134L11.7773 30.8987C12.0054 29.1746 12.504 27.8737 13.355 27.0052C14.212 26.131 15.3954 25.7249 16.9219 25.7249C18.3846 25.7249 19.5927 26.111 20.5532 26.7971C21.3924 27.3968 22.0328 28.2187 22.4897 29.1907L22.6743 29.617L22.6787 29.6272L22.708 29.6873C22.7934 29.8116 22.9794 29.8338 23.0874 29.7239L23.4272 29.3899C25.1529 27.7697 27.2936 26.768 29.2632 25.7542C30.4624 25.0731 31.6289 24.2825 32.4902 23.3328C33.3487 22.3861 33.8993 21.2901 33.8994 19.9929C33.8994 19.5787 33.8572 19.0145 33.7983 18.4959C33.7391 17.9736 33.6654 17.517 33.6079 17.3108C33.5231 17.0064 33.6201 16.7135 33.8481 16.5579Z" fill="#F8F9F7"/>
</svg>
